{
  "accessors": [
    {
      "bufferView": 0,
      "componentType": 5125,
      "count": 17664,
      "type": "SCALAR"
    },
    {
      "bufferView": 1,
      "componentType": 5126,
      "count": 3223,
      "min": [
        -0.9999986290931702,
        -0.999998927116394,
        -1.0
      ],
      "max": [
        0.999999463558197,
        0.9999982118606567,
        1.0
      ],
      "type": "VEC3"
    },
    {
      "bufferView": 2,
      "componentType": 5126,
      "count": 3223,
      "type": "VEC3"
    },
    {
      "bufferView": 3,
      "componentType": 5126,
      "count": 3223,
      "type": "VEC2"
    }
  ],
  "asset": {
    "version": "2.0"
  },
  "bufferViews": [
    {
      "buffer": 0,
      "byteLength": 70656,
      "target": 34963
    },
    {
      "buffer": 1,
      "byteLength": 38676,
      "target": 34962
    },
    {
      "buffer": 1,
      "byteLength": 38676,
      "byteOffset": 38676,
      "target": 34962
    },
    {
      "buffer": 1,
      "byteLength": 25784,
      "byteOffset": 77352,
      "target": 34962
    }
  ],
  "materials": [
    {
      "name": "Material.002",
      "doubleSided": true,
      "pbrMetallicRoughness": {
        "metallicFactor": 0.0,
        "baseColorTexture": {
          "index": 0
        }
      },
      "extensions": {
        "KHR_materials_ior": {
          "ior": 0.0
        }
      }
    }
  ],
  "meshes": [
    {
      "primitives": [
        {
          "attributes": {
            "NORMAL": 2,
            "POSITION": 1,
            "TEXCOORD_0": 3
          },
          "indices": 0,
          "material": 0,
          "mode": 4
        }
      ],
      "name": "Object_0"
    }
  ],
  "nodes": [
    {
      "mesh": 0,
      "name": "Object_9"
    },
    {
      "name": "RootNode_3",
      "children": [
        7
      ]
    },
    {
      "name": "Sphere_Material.002_0_5",
      "children": [
        0
      ]
    },
    {
      "matrix": [
        1.0,
        0.0,
        0.0,
        0.0,
        0.0,
        0.0,
        1.0,
        0.0,
        0.0,
        -1.0,
        0.0,
        0.0,
        0.0,
        0.0,
        0.0,
        1.0
      ],
      "name": "9200ff58b32943abb71f9b9bf8373a3b.fbx_2",
      "children": [
        1
      ]
    },
    {
      "name": "RootNode (model correction matrix)_1",
      "children": [
        3
      ]
    },
    {
      "matrix": [
        1.0,
        0.0,
        -0.0,
        0.0,
        -0.0,
        0.0,
        -1.0,
        0.0,
        0.0,
        1.0,
        0.0,
        0.0,
        0.0,
        0.0,
        0.0,
        1.0
      ],
      "name": "RootNode (gltf orientation matrix)_0",
      "children": [
        4
      ]
    },
    {
      "matrix": [
        1.0,
        0.0,
        0.0,
        0.0,
        0.0,
        2.220446049250313e-16,
        1.0,
        0.0,
        0.0,
        -1.0,
        2.220446049250313e-16,
        0.0,
        0.0,
        0.0,
        0.0,
        1.0
      ],
      "name": "GLTF_SceneRootNode",
      "children": [
        5
      ]
    },
    {
      "matrix": [
        100.0,
        0.0,
        0.0,
        0.0,
        0.0,
        -0.000016292067812173629,
        -100.0,
        0.0,
        0.0,
        100.0,
        -0.000016292067812173629,
        0.0,
        0.0,
        0.0,
        0.0,
        1.0
      ],
      "name": "Sphere_4",
      "children": [
        2
      ]
    },
    {
      "name": "root",
      "children": [
        6
      ]
    },
    {
      "matrix": [
        1.0,
        0.0,
        0.0,
        0.0,
        0.0,
        2.220446049250313e-16,
        -1.0,
        0.0,
        0.0,
        1.0,
        2.220446049250313e-16,
        0.0,
        0.0,
        0.0,
        0.0,
        1.0
      ],
      "name": "Sketchfab_model",
      "children": [
        8
      ]
    }
  ],
  "scene": 0,
  "scenes": [
    {
      "nodes": [
        9
      ]
    }
  ],
  "textures": [
    {
      "sampler": 0,
      "source": 0,
      "name": "texture1"
    }
  ],
  "samplers": [
    {
      "name": "sampler0",
      "magFilter": 9729,
      "minFilter": 9987,
      "wrapS": 10497,
      "wrapT": 10497
    }
  ],
  "buffers": [
    {
      "byteLength": 70656,
      "uri": "data:application/octet-stream;base64,"
    },
    {
      "byteLength": 103136,
      "uri": "data:application/octet-stream;base64,"
    }
  ],
  "images": [
    {
      "uri": "9b2377b9d5c9e4cdfee6061f300a63ed.jpg",
      "name": "Material.002_baseColor"
    }
  ]
}
