{
  "accessors": [
    {
      "bufferView": 0,
      "componentType": 5125,
      "count": 6822,
      "type": "SCALAR"
    },
    {
      "bufferView": 1,
      "componentType": 5126,
      "count": 1580,
      "min": [
        -0.032689910382032397,
        -0.027891730889678,
        -0.05008762702345848
      ],
      "max": [
        0.03270643204450607,
        0.020946236327290536,
        0.0731215700507164
      ],
      "type": "VEC3"
    },
    {
      "bufferView": 2,
      "componentType": 5126,
      "count": 1580,
      "type": "VEC3"
    },
    {
      "bufferView": 3,
      "componentType": 5126,
      "count": 1580,
      "type": "VEC2"
    }
  ],
  "asset": {
    "version": "2.0"
  },
  "bufferViews": [
    {
      "buffer": 0,
      "byteLength": 27288,
      "target": 34963
    },
    {
      "buffer": 1,
      "byteLength": 18960,
      "target": 34962
    },
    {
      "buffer": 1,
      "byteLength": 18960,
      "byteOffset": 18960,
      "target": 34962
    },
    {
      "buffer": 1,
      "byteLength": 12640,
      "byteOffset": 37920,
      "target": 34962
    }
  ],
  "materials": [
    {
      "name": "genericController",
      "alphaCutoff": 1.0,
      "doubleSided": true,
      "emissiveFactor": [
        0.027982953935861589,
        0.027982953935861589,
        0.027982953935861589
      ],
      "pbrMetallicRoughness": {
        "baseColorTexture": {
          "index": 0
        }
      }
    }
  ],
  "meshes": [
    {
      "primitives": [
        {
          "attributes": {
            "NORMAL": 2,
            "POSITION": 1,
            "TEXCOORD_0": 3
          },
          "indices": 0,
          "material": 0,
          "mode": 4
        }
      ],
      "name": "Mesh.016"
    }
  ],
  "nodes": [
    {
      "mesh": 0,
      "name": "genericController_L_geo"
    }
  ],
  "scene": 0,
  "scenes": [
    {
      "nodes": [
        0
      ]
    }
  ],
  "textures": [
    {
      "sampler": 0,
      "source": 0,
      "name": "New Texture"
    }
  ],
  "samplers": [
    {
      "magFilter": 9729,
      "minFilter": 9729,
      "wrapS": 10497,
      "wrapT": 10497
    }
  ],
  "buffers": [
    {
      "byteLength": 27288,
      "uri": "data:application/octet-stream;base64,"
    },
    {
      "byteLength": 50560,
      "uri": "data:application/octet-stream;base64,"
    }
  ],
  "images": [
    {
      "uri": "eaec00f4890cae187ef53c17ac8122de.png",
      "name": "genericController_Color"
    }
  ]
}
