{
  "accessors": [
    {
      "bufferView": 0,
      "componentType": 5125,
      "count": 78516,
      "type": "SCALAR"
    },
    {
      "bufferView": 1,
      "componentType": 5126,
      "count": 18113,
      "min": [
        -0.09697766602039337,
        -0.045881375670433047,
        -0.10646731406450272
      ],
      "max": [
        0.09697362780570984,
        0.060962509363889697,
        0.1377536803483963
      ],
      "type": "VEC3"
    },
    {
      "bufferView": 2,
      "componentType": 5126,
      "count": 18113,
      "type": "VEC3"
    },
    {
      "bufferView": 3,
      "componentType": 5126,
      "count": 18113,
      "type": "VEC2"
    }
  ],
  "asset": {
    "version": "2.0"
  },
  "bufferViews": [
    {
      "buffer": 0,
      "byteLength": 314064,
      "target": 34963
    },
    {
      "buffer": 1,
      "byteLength": 217356,
      "target": 34962
    },
    {
      "buffer": 1,
      "byteLength": 217356,
      "byteOffset": 217356,
      "target": 34962
    },
    {
      "buffer": 1,
      "byteLength": 144904,
      "byteOffset": 434712,
      "target": 34962
    }
  ],
  "materials": [
    {
      "name": "genericHeadset",
      "doubleSided": true,
      "normalTexture": {
        "index": 1
      },
      "occlusionTexture": {
        "index": 0
      },
      "pbrMetallicRoughness": {
        "baseColorTexture": {
          "index": 2
        },
        "metallicRoughnessTexture": {
          "index": 0
        }
      }
    }
  ],
  "meshes": [
    {
      "primitives": [
        {
          "attributes": {
            "NORMAL": 2,
            "POSITION": 1,
            "TEXCOORD_0": 3
          },
          "indices": 0,
          "material": 0,
          "mode": 4
        }
      ],
      "name": "Mesh.002"
    }
  ],
  "nodes": [
    {
      "mesh": 0,
      "name": "genericHeadset_geo"
    }
  ],
  "scene": 0,
  "scenes": [
    {
      "nodes": [
        0
      ]
    }
  ],
  "textures": [
    {
      "sampler": 0,
      "source": 1,
      "name": "texture2"
    },
    {
      "sampler": 0,
      "source": 0,
      "name": "texture1"
    },
    {
      "sampler": 0,
      "source": 2,
      "name": "texture3"
    }
  ],
  "samplers": [
    {
      "name": "sampler0",
      "magFilter": 9729,
      "minFilter": 9987,
      "wrapS": 10497,
      "wrapT": 10497
    }
  ],
  "buffers": [
    {
      "byteLength": 314064,
      "uri": "data:application/octet-stream;base64,"
    },
    {
      "byteLength": 579616,
      "uri": "data:application/octet-stream;base64,"
    }
  ],
  "images": [
    {
      "uri": "879542d5273e16367d8ecb6e40ecb677.png",
      "name": "genericHeadset_Normal"
    },
    {
      "uri": "7827219af98506d4e8fb5b5e9e2d0fd7.png",
      "name": "genericHeadset_ORM"
    },
    {
      "uri": "9ab0b3d512f63556e826e6d2549e4cc1.png",
      "name": "genericHeadset_Color"
    }
  ]
}
